<?xml version="1.0" encoding="UTF-8"?> <svg xmlns="http://www.w3.org/2000/svg" width="32" height="32" viewBox="0 0 32 32" fill="none"><rect width="32" height="32" fill="white"></rect><path d="M18.275 3.5625C14.2875 3.89375 10.8687 5.53125 8.38749 8.3125C6.38749 10.5437 4.88749 13.3812 4.09374 16.4062C3.38749 19.1062 3.31874 21.5312 3.89999 23.275C4.70624 25.6625 6.61874 27.3875 9.25624 28.0938C10.525 28.4312 10.9187 28.4562 15.5625 28.4625L19.8437 28.4688L20.425 26.7812C21.0687 24.9188 21.1375 24.55 20.9812 23.9938C20.8375 23.5187 20.525 23.175 19.9812 22.9062C19.175 22.5125 18.9812 22.4875 15.7187 22.4437C13.15 22.4062 12.7437 22.3875 12.5 22.2937C11.225 21.8 10.625 20.725 10.6125 18.9375C10.6 17.3875 11.0187 15.775 11.8875 14.0312C12.825 12.1437 14.1 10.7 15.4375 10.0063C16.2562 9.58125 16.0125 9.60625 20.5937 9.5625C24.6687 9.525 24.7937 9.525 25.1812 9.39375C25.9375 9.1375 26.5062 8.61875 26.9062 7.81875C27.0562 7.5125 27.4187 6.5375 28.1937 4.35625L28.4937 3.5L23.6687 3.50625C21.0125 3.5125 18.5875 3.5375 18.275 3.5625Z" fill="#53B154"></path></svg> 